<svg id="kity_svg_6" xmlns="http://www.w3.org/2000/svg" xmlns:xlink="http://www.w3.org/1999/xlink" version="1.1" width="809" height="716" style="background: rgb(251, 251, 251); visibility: visible;" viewBox="0 0 809 716"><defs id="kity_defs_7"><linearGradient id="kity_linearGradient_17" x1="0" y1="0" x2="0" y2="1"><stop id="kity_stop_18" offset="0" stop-color="rgb(255, 255, 255)"></stop><stop id="kity_stop_19" offset="1" stop-color="rgb(204, 204, 204)"></stop></linearGradient><marker id="kity_marker_2" orient="auto" refX="6" refY="0" viewBox="-7 -7 14 14" markerWidth="7" markerHeight="7" markerUnits="userSpaceOnUse"><path id="kity_path_3" fill="rgb(115, 161, 191)" stroke="none" d="M6,0A6,6,0,1,1,-6,0A6,6,0,1,1,6,0"></path></marker></defs><g id="kity_g_8"><g id="minder1" text-rendering="optimize-speed"><g id="minder_connect_group1"><path id="kity_path_31" fill="none" stroke="rgb(115, 161, 191)" stroke-width="1" d="M99,306.5A196.5,249,0,0,1,295.5,57.5"></path><path id="kity_path_39" fill="none" stroke="rgb(115, 161, 191)" stroke-width="1" d="M365.5,57.5C385.5,57.5,385.5,31.5,405.5,31.5"></path><path id="kity_path_47" fill="none" stroke="rgb(115, 161, 191)" stroke-width="1" d="M365.5,57.5C385.5,57.5,385.5,83.5,405.5,83.5"></path><path id="kity_path_55" fill="none" stroke="rgb(115, 161, 191)" stroke-width="1" d="M99,306.5A196.5,57,0,0,1,295.5,249.5"></path><path id="kity_path_63" fill="none" stroke="rgb(115, 161, 191)" stroke-width="1" d="M487.5,197.5C507.5,197.5,507.5,145.5,527.5,145.5"></path><path id="kity_path_71" fill="none" stroke="rgb(115, 161, 191)" stroke-width="1" d="M487.5,197.5C507.5,197.5,507.5,197.5,527.5,197.5"></path><path id="kity_path_79" fill="none" stroke="rgb(115, 161, 191)" stroke-width="1" d="M487.5,197.5C507.5,197.5,507.5,249.5,527.5,249.5"></path><path id="kity_path_87" fill="none" stroke="rgb(115, 161, 191)" stroke-width="1" d="M460.5,301.5C480.5,301.5,480.5,301.5,500.5,301.5"></path><path id="kity_path_95" fill="none" stroke="rgb(115, 161, 191)" stroke-width="1" d="M365.5,249.5C385.5,249.5,385.5,197.5,405.5,197.5"></path><path id="kity_path_103" fill="none" stroke="rgb(115, 161, 191)" stroke-width="1" d="M365.5,249.5C385.5,249.5,385.5,301.5,405.5,301.5"></path><path id="kity_path_111" fill="none" stroke="rgb(115, 161, 191)" stroke-width="1" d="M610.5,197.5C630.5,197.5,630.5,197.5,650.5,197.5"></path><path id="kity_path_119" fill="none" stroke="rgb(115, 161, 191)" stroke-width="1" d="M624.5,145.5C644.5,145.5,644.5,145.5,664.5,145.5"></path><path id="kity_path_127" fill="none" stroke="rgb(115, 161, 191)" stroke-width="1" d="M99,306.5A196.5,83,0,0,0,295.5,389.5"></path><path id="kity_path_135" fill="none" stroke="rgb(115, 161, 191)" stroke-width="1" d="M447.5,389.5C467.5,389.5,467.5,363.5,487.5,363.5"></path><path id="kity_path_143" fill="none" stroke="rgb(115, 161, 191)" stroke-width="1" d="M447.5,389.5C467.5,389.5,467.5,415.5,487.5,415.5"></path><path id="kity_path_151" fill="none" stroke="rgb(115, 161, 191)" stroke-width="1" d="M99,306.5A196.5,249,0,0,0,295.5,555.5"></path><path id="kity_path_159" fill="none" stroke="rgb(115, 161, 191)" stroke-width="1" d="M378.5,555.5C398.5,555.5,398.5,477.5,418.5,477.5"></path><path id="kity_path_167" fill="none" stroke="rgb(115, 161, 191)" stroke-width="1" d="M378.5,555.5C398.5,555.5,398.5,529.5,418.5,529.5"></path><path id="kity_path_176" fill="none" stroke="rgb(115, 161, 191)" stroke-width="1" d="M378.5,555.5C398.5,555.5,398.5,633.5,418.5,633.5"></path><path id="kity_path_184" fill="none" stroke="rgb(115, 161, 191)" stroke-width="1" d="M522.5,633.5C542.5,633.5,542.5,581.5,562.5,581.5"></path><path id="kity_path_192" fill="none" stroke="rgb(115, 161, 191)" stroke-width="1" d="M522.5,633.5C542.5,633.5,542.5,633.5,562.5,633.5"></path><path id="kity_path_200" fill="none" stroke="rgb(115, 161, 191)" stroke-width="1" d="M522.5,633.5C542.5,633.5,542.5,685.5,562.5,685.5"></path></g><g id="minder_node1"><path id="node_outline1" fill="rgb(115, 161, 191)" stroke="rgb(115, 161, 191)" d="M25.5,286.5h147a5,5,0,0,1,5,5v30a5,5,0,0,1,-5,5h-147a5,5,0,0,1,-5,-5v-30a5,5,0,0,1,5,-5z" stroke-width="3"></path><g id="node_text1" fill="white"><text id="kity_text_22" text-rendering="inherit" font-size="16" dy=".8em" y="298.5" x="44.5">Babel使用说明</text></g></g><g id="kity_g_14" display="none"><path id="kity_path_15" fill="rgba(0, 92, 153, 0.5)" stroke="none" d="M-262.5,426.5h55v15h-55z"></path><path id="kity_path_16" fill="none" stroke="rgb(0, 76, 128)" d="M-262.5,426.5L-207.5,426.5" stroke-width="1"></path></g><g id="minder_node2"><g id="node_expander1" style="cursor: pointer;"><path id="kity_path_36" fill="white" stroke="gray" d="M296.5,57.5A6,6,0,1,1,284.5,57.5A6,6,0,1,1,296.5,57.5"></path><path id="kity_path_37" fill="none" stroke="gray" d="M286,57.5L295,57.5"></path></g><path id="node_outline2" fill="rgb(238, 243, 246)" stroke="rgb(115, 161, 191)" d="M300.5,44.5h62a3,3,0,0,1,3,3v20a3,3,0,0,1,-3,3h-62a3,3,0,0,1,-3,-3v-20a3,3,0,0,1,3,-3z" stroke-width="1"></path><g id="node_text2" fill="black"><text id="kity_text_33" text-rendering="inherit" font-size="14" dy=".8em" y="50.5" x="317.5">功能</text></g></g><g id="minder_node3"><g id="node_expander2" style="cursor: pointer;" display="none"><path id="kity_path_44" fill="white" stroke="gray" d="M405.5,31.5A6,6,0,1,1,393.5,31.5A6,6,0,1,1,405.5,31.5"></path><path id="kity_path_45" fill="none" stroke="gray"></path></g><path id="node_outline3" fill="none" stroke="none" d="M410.5,20.5h104a5,5,0,0,1,5,5v12a5,5,0,0,1,-5,5h-104a5,5,0,0,1,-5,-5v-12a5,5,0,0,1,5,-5z" stroke-width="3"></path><g id="node_text3" fill="black"><text id="kity_text_41" text-rendering="inherit" font-size="12" dy=".8em" y="25.5" x="415.5">transform synatx</text></g></g><g id="minder_node4"><g id="node_expander3" style="cursor: pointer;" display="none"><path id="kity_path_52" fill="white" stroke="gray" d="M405.5,83.5A6,6,0,1,1,393.5,83.5A6,6,0,1,1,405.5,83.5"></path><path id="kity_path_53" fill="none" stroke="gray"></path></g><path id="node_outline4" fill="none" stroke="none" d="M410.5,72.5h96a5,5,0,0,1,5,5v12a5,5,0,0,1,-5,5h-96a5,5,0,0,1,-5,-5v-12a5,5,0,0,1,5,-5z" stroke-width="3"></path><g id="node_text4" fill="black"><text id="kity_text_49" text-rendering="inherit" font-size="12" dy=".8em" y="77.5" x="415.5">polyfill features</text></g></g><g id="minder_node5"><g id="node_expander4" style="cursor: pointer;"><path id="kity_path_60" fill="white" stroke="gray" d="M296.5,249.5A6,6,0,1,1,284.5,249.5A6,6,0,1,1,296.5,249.5"></path><path id="kity_path_61" fill="none" stroke="gray" d="M286,249.5L295,249.5"></path></g><path id="node_outline5" fill="rgb(238, 243, 246)" stroke="rgb(115, 161, 191)" d="M300.5,236.5h62a3,3,0,0,1,3,3v20a3,3,0,0,1,-3,3h-62a3,3,0,0,1,-3,-3v-20a3,3,0,0,1,3,-3z" stroke-width="1"></path><g id="node_text5" fill="black"><text id="kity_text_57" text-rendering="inherit" font-size="14" dy=".8em" y="242.5" x="317.5">家族</text></g></g><g id="minder_node6" opacity="1"><g id="node_expander5" style="cursor: pointer;"><path id="kity_path_68" fill="white" stroke="gray" d="M527.5,145.5A6,6,0,1,1,515.5,145.5A6,6,0,1,1,527.5,145.5"></path><path id="kity_path_69" fill="none" stroke="gray" d="M517,145.5L526,145.5"></path></g><path id="node_outline6" fill="none" stroke="none" d="M532.5,134.5h87a5,5,0,0,1,5,5v12a5,5,0,0,1,-5,5h-87a5,5,0,0,1,-5,-5v-12a5,5,0,0,1,5,-5z" stroke-width="3"></path><g id="node_text6" fill="black"><text id="kity_text_65" text-rendering="inherit" font-size="12" dy=".8em" y="139.5" x="537.5">@babel/core</text></g></g><g id="minder_node7" opacity="1"><g id="node_expander6" style="cursor: pointer;"><path id="kity_path_76" fill="white" stroke="gray" d="M527.5,197.5A6,6,0,1,1,515.5,197.5A6,6,0,1,1,527.5,197.5"></path><path id="kity_path_77" fill="none" stroke="gray" d="M517,197.5L526,197.5"></path></g><path id="node_outline7" fill="none" stroke="none" d="M532.5,186.5h73a5,5,0,0,1,5,5v12a5,5,0,0,1,-5,5h-73a5,5,0,0,1,-5,-5v-12a5,5,0,0,1,5,-5z" stroke-width="3"></path><g id="node_text7" fill="black"><text id="kity_text_73" text-rendering="inherit" font-size="12" dy=".8em" y="191.5" x="537.5">@babel/cli</text></g></g><g id="minder_node8" opacity="1"><g id="node_expander7" style="cursor: pointer;" display="none"><path id="kity_path_84" fill="white" stroke="gray" d="M527.5,249.5A6,6,0,1,1,515.5,249.5A6,6,0,1,1,527.5,249.5"></path><path id="kity_path_85" fill="none" stroke="gray"></path></g><path id="node_outline8" fill="none" stroke="none" d="M532.5,238.5h122a5,5,0,0,1,5,5v12a5,5,0,0,1,-5,5h-122a5,5,0,0,1,-5,-5v-12a5,5,0,0,1,5,-5z" stroke-width="3"></path><g id="node_text8" fill="black"><text id="kity_text_81" text-rendering="inherit" font-size="12" dy=".8em" y="243.5" x="537.5">@babel/preset-env</text></g></g><g id="minder_node9" opacity="1"><g id="node_expander8" style="cursor: pointer;" display="none"><path id="kity_path_92" fill="white" stroke="gray" d="M500.5,301.5A6,6,0,1,1,488.5,301.5A6,6,0,1,1,500.5,301.5"></path><path id="kity_path_93" fill="none" stroke="gray"></path></g><path id="node_outline9" fill="none" stroke="none" d="M505.5,290.5h95a5,5,0,0,1,5,5v12a5,5,0,0,1,-5,5h-95a5,5,0,0,1,-5,-5v-12a5,5,0,0,1,5,-5z" stroke-width="3"></path><g id="node_text9" fill="black"><text id="kity_text_89" text-rendering="inherit" font-size="12" dy=".8em" y="295.5" x="510.5">@babel-polyfill</text></g></g><g id="minder_node10"><g id="node_expander9" style="cursor: pointer;"><path id="kity_path_100" fill="white" stroke="gray" d="M405.5,197.5A6,6,0,1,1,393.5,197.5A6,6,0,1,1,405.5,197.5"></path><path id="kity_path_101" fill="none" stroke="gray" d="M395,197.5L404,197.5"></path></g><path id="node_outline10" fill="none" stroke="none" d="M410.5,186.5h72a5,5,0,0,1,5,5v12a5,5,0,0,1,-5,5h-72a5,5,0,0,1,-5,-5v-12a5,5,0,0,1,5,-5z" stroke-width="3"></path><g id="node_text10" fill="black"><text id="kity_text_97" text-rendering="inherit" font-size="12" dy=".8em" y="191.5" x="415.5">--save-dev</text></g></g><g id="minder_node11"><g id="node_expander10" style="cursor: pointer;"><path id="kity_path_108" fill="white" stroke="gray" d="M405.5,301.5A6,6,0,1,1,393.5,301.5A6,6,0,1,1,405.5,301.5"></path><path id="kity_path_109" fill="none" stroke="gray" d="M395,301.5L404,301.5"></path></g><path id="node_outline11" fill="none" stroke="none" d="M410.5,290.5h45a5,5,0,0,1,5,5v12a5,5,0,0,1,-5,5h-45a5,5,0,0,1,-5,-5v-12a5,5,0,0,1,5,-5z" stroke-width="3"></path><g id="node_text11" fill="black"><text id="kity_text_105" text-rendering="inherit" font-size="12" dy=".8em" y="295.5" x="415.5">--save</text></g></g><g id="kity_g_12" display="none"><path id="kity_path_13" fill="none" stroke="rgb(66, 94, 112)" d="M-257.5,399.5h45a5,5,0,0,1,5,5v12a5,5,0,0,1,-5,5h-45a5,5,0,0,1,-5,-5v-12a5,5,0,0,1,5,-5z" stroke-width="5"></path></g><g id="minder_node12"><g id="node_expander11" style="cursor: pointer;" display="none"><path id="kity_path_116" fill="white" stroke="gray" d="M650.5,197.5A6,6,0,1,1,638.5,197.5A6,6,0,1,1,650.5,197.5"></path><path id="kity_path_117" fill="none" stroke="gray"></path></g><path id="node_outline12" fill="none" stroke="none" d="M655.5,186.5h129a5,5,0,0,1,5,5v12a5,5,0,0,1,-5,5h-129a5,5,0,0,1,-5,-5v-12a5,5,0,0,1,5,-5z" stroke-width="3"></path><g id="node_text12" fill="black"><text id="kity_text_113" text-rendering="inherit" font-size="12" dy=".8em" y="191.5" x="660.5">运行在终端上的babel</text></g></g><g id="minder_node13"><g id="node_expander12" style="cursor: pointer;" display="none"><path id="kity_path_124" fill="white" stroke="gray" d="M664.5,145.5A6,6,0,1,1,652.5,145.5A6,6,0,1,1,664.5,145.5"></path><path id="kity_path_125" fill="none" stroke="gray"></path></g><path id="node_outline13" fill="none" stroke="none" d="M669.5,134.5h105a5,5,0,0,1,5,5v12a5,5,0,0,1,-5,5h-105a5,5,0,0,1,-5,-5v-12a5,5,0,0,1,5,-5z" stroke-width="3"></path><g id="node_text13" fill="black"><text id="kity_text_121" text-rendering="inherit" font-size="12" dy=".8em" y="139.5" x="674.5">babel的核心功能</text></g></g><g id="minder_node14" opacity="1"><g id="node_expander13" style="cursor: pointer;"><path id="kity_path_132" fill="white" stroke="gray" d="M296.5,389.5A6,6,0,1,1,284.5,389.5A6,6,0,1,1,296.5,389.5"></path><path id="kity_path_133" fill="none" stroke="gray" d="M286,389.5L295,389.5"></path></g><path id="node_outline14" fill="rgb(238, 243, 246)" stroke="rgb(115, 161, 191)" d="M300.5,376.5h144a3,3,0,0,1,3,3v20a3,3,0,0,1,-3,3h-144a3,3,0,0,1,-3,-3v-20a3,3,0,0,1,3,-3z" stroke-width="1"></path><g id="node_text14" fill="black"><text id="kity_text_129" text-rendering="inherit" font-size="14" dy=".8em" y="382.5" x="317.5">Plugins &amp; Presets</text></g></g><g id="minder_node15"><g id="node_expander14" style="cursor: pointer;" display="none"><path id="kity_path_140" fill="white" stroke="gray" d="M487.5,363.5A6,6,0,1,1,475.5,363.5A6,6,0,1,1,487.5,363.5"></path><path id="kity_path_141" fill="none" stroke="gray"></path></g><path id="node_outline15" fill="none" stroke="none" d="M492.5,352.5h34a5,5,0,0,1,5,5v12a5,5,0,0,1,-5,5h-34a5,5,0,0,1,-5,-5v-12a5,5,0,0,1,5,-5z" stroke-width="3"></path><g id="node_text15" fill="black"><text id="kity_text_137" text-rendering="inherit" font-size="12" dy=".8em" y="357.5" x="497.5">区别</text></g></g><g id="minder_node16"><g id="node_expander15" style="cursor: pointer;" display="none"><path id="kity_path_148" fill="white" stroke="gray" d="M487.5,415.5A6,6,0,1,1,475.5,415.5A6,6,0,1,1,487.5,415.5"></path><path id="kity_path_149" fill="none" stroke="gray"></path></g><path id="node_outline16" fill="none" stroke="none" d="M492.5,404.5h32a5,5,0,0,1,5,5v12a5,5,0,0,1,-5,5h-32a5,5,0,0,1,-5,-5v-12a5,5,0,0,1,5,-5z" stroke-width="3"></path><g id="node_text16" fill="black"><text id="kity_text_145" text-rendering="inherit" font-size="12" dy=".8em" y="409.5" x="497.5">env</text></g></g><g id="minder_node17"><g id="node_expander16" style="cursor: pointer;"><path id="kity_path_156" fill="white" stroke="gray" d="M296.5,555.5A6,6,0,1,1,284.5,555.5A6,6,0,1,1,296.5,555.5"></path><path id="kity_path_157" fill="none" stroke="gray" d="M286,555.5L295,555.5"></path></g><path id="node_outline17" fill="rgb(238, 243, 246)" stroke="rgb(115, 161, 191)" d="M300.5,542.5h75a3,3,0,0,1,3,3v20a3,3,0,0,1,-3,3h-75a3,3,0,0,1,-3,-3v-20a3,3,0,0,1,3,-3z" stroke-width="1"></path><g id="node_text17" fill="black"><text id="kity_text_153" text-rendering="inherit" font-size="14" dy=".8em" y="548.5" x="317.5">Polyfill</text></g></g><g id="minder_node18"><g id="node_expander17" style="cursor: pointer;" display="none"><path id="kity_path_164" fill="white" stroke="gray" d="M418.5,477.5A6,6,0,1,1,406.5,477.5A6,6,0,1,1,418.5,477.5"></path><path id="kity_path_165" fill="none" stroke="gray"></path></g><path id="node_outline18" fill="none" stroke="none" d="M423.5,466.5h113a5,5,0,0,1,5,5v12a5,5,0,0,1,-5,5h-113a5,5,0,0,1,-5,-5v-12a5,5,0,0,1,5,-5z" stroke-width="3"></path><g id="node_text18" fill="black"><text id="kity_text_161" text-rendering="inherit" font-size="12" dy=".8em" y="471.5" x="428.5">env中的useBuiltIns</text></g></g><g id="minder_node19" opacity="1"><g id="node_expander18" style="cursor: pointer;" display="none"><path id="kity_path_172" fill="white" stroke="gray" d="M418.5,529.5A6,6,0,1,1,406.5,529.5A6,6,0,1,1,418.5,529.5"></path><path id="kity_path_173" fill="none" stroke="gray"></path></g><path id="node_outline19" fill="none" stroke="none" d="M423.5,518.5h245a5,5,0,0,1,5,5v12a5,5,0,0,1,-5,5h-245a5,5,0,0,1,-5,-5v-12a5,5,0,0,1,5,-5z" stroke-width="3"></path><g id="node_text19" fill="black"><text id="kity_text_169" text-rendering="inherit" font-size="12" dy=".8em" y="523.5" x="428.5">transform runtime和@babel/polyfill的区别</text></g></g><g id="minder_node20"><g id="node_expander19" style="cursor: pointer;"><path id="kity_path_181" fill="white" stroke="gray" d="M418.5,633.5A6,6,0,1,1,406.5,633.5A6,6,0,1,1,418.5,633.5"></path><path id="kity_path_182" fill="none" stroke="gray" d="M408,633.5L417,633.5"></path></g><path id="node_outline20" fill="none" stroke="none" d="M423.5,622.5h94a5,5,0,0,1,5,5v12a5,5,0,0,1,-5,5h-94a5,5,0,0,1,-5,-5v-12a5,5,0,0,1,5,-5z" stroke-width="3"></path><g id="node_text20" fill="black"><text id="kity_text_178" text-rendering="inherit" font-size="12" dy=".8em" y="627.5" x="428.5">三种polyfill方式</text></g></g><g id="minder_node21"><g id="node_expander20" style="cursor: pointer;" display="none"><path id="kity_path_189" fill="white" stroke="gray" d="M562.5,581.5A6,6,0,1,1,550.5,581.5A6,6,0,1,1,562.5,581.5"></path><path id="kity_path_190" fill="none" stroke="gray"></path></g><path id="node_outline21" fill="none" stroke="none" d="M567.5,570.5h185a5,5,0,0,1,5,5v12a5,5,0,0,1,-5,5h-185a5,5,0,0,1,-5,-5v-12a5,5,0,0,1,5,-5z" stroke-width="3"></path><g id="node_text21" fill="black"><text id="kity_text_186" text-rendering="inherit" font-size="12" dy=".8em" y="575.5" x="572.5">确切知道：从core-js直接require</text></g></g><g id="minder_node22"><g id="node_expander21" style="cursor: pointer;" display="none"><path id="kity_path_197" fill="white" stroke="gray" d="M562.5,633.5A6,6,0,1,1,550.5,633.5A6,6,0,1,1,562.5,633.5"></path><path id="kity_path_198" fill="none" stroke="gray"></path></g><path id="node_outline22" fill="none" stroke="none" d="M567.5,622.5h130a5,5,0,0,1,5,5v12a5,5,0,0,1,-5,5h-130a5,5,0,0,1,-5,-5v-12a5,5,0,0,1,5,-5z" stroke-width="3"></path><g id="node_text22" fill="black"><text id="kity_text_194" text-rendering="inherit" font-size="12" dy=".8em" y="627.5" x="572.5">入口文件，直接polyfill</text></g></g><g id="minder_node23"><g id="node_expander22" style="cursor: pointer;" display="none"><path id="kity_path_205" fill="white" stroke="gray" d="M562.5,685.5A6,6,0,1,1,550.5,685.5A6,6,0,1,1,562.5,685.5"></path><path id="kity_path_206" fill="none" stroke="gray"></path></g><path id="node_outline23" fill="none" stroke="none" d="M567.5,674.5h96a5,5,0,0,1,5,5v12a5,5,0,0,1,-5,5h-96a5,5,0,0,1,-5,-5v-12a5,5,0,0,1,5,-5z" stroke-width="3"></path><g id="node_text23" fill="black"><text id="kity_text_202" text-rendering="inherit" font-size="12" dy=".8em" y="679.5" x="572.5">env useBuildIns</text></g></g></g></g></svg>