<svg id="kity_svg_6" xmlns="http://www.w3.org/2000/svg" xmlns:xlink="http://www.w3.org/1999/xlink" version="1.1" width="587" height="516" style="background: rgb(251, 251, 251); visibility: visible;" viewBox="0 0 587 516"><defs id="kity_defs_7"><linearGradient id="kity_linearGradient_17" x1="0" y1="0" x2="0" y2="1"><stop id="kity_stop_18" offset="0" stop-color="rgb(255, 255, 255)"></stop><stop id="kity_stop_19" offset="1" stop-color="rgb(204, 204, 204)"></stop></linearGradient><marker id="kity_marker_2" orient="auto" refX="6" refY="0" viewBox="-7 -7 14 14" markerWidth="7" markerHeight="7" markerUnits="userSpaceOnUse"><path id="kity_path_3" fill="rgb(115, 161, 191)" stroke="none" d="M6,0A6,6,0,1,1,-6,0A6,6,0,1,1,6,0"></path></marker></defs><g id="kity_g_8"><g id="minder1" text-rendering="optimize-speed"><g id="minder_connect_group1"><path id="kity_path_87" fill="none" stroke="rgb(115, 161, 191)" stroke-width="1" d="M67.5,310.5A176,160,0,0,1,243.5,150.5"></path><path id="kity_path_98" fill="none" stroke="rgb(115, 161, 191)" stroke-width="1" d="M67.5,310.5A170,11,0,0,0,237.5,321.5"></path><path id="kity_path_138" fill="none" stroke="rgb(115, 161, 191)" stroke-width="1" d="M67.5,310.5A171,149,0,0,0,238.5,459.5"></path><path id="kity_path_192" fill="none" stroke="rgb(115, 161, 191)" stroke-width="1" d="M67.5,310.5A174,277,0,0,1,241.5,33.5"></path><path id="kity_path_207" fill="none" stroke="rgb(115, 161, 191)" stroke-width="1" d="M366.5,33.5C386.5,33.5,386.5,33.5,406.5,33.5"></path><path id="kity_path_212" fill="none" stroke="rgb(115, 161, 191)" stroke-width="1" d="M313.5,150.5C333.5,150.5,333.5,72.5,353.5,72.5"></path><path id="kity_path_213" fill="none" stroke="rgb(115, 161, 191)" stroke-width="1" d="M313.5,150.5C333.5,150.5,333.5,124.5,353.5,124.5"></path><path id="kity_path_214" fill="none" stroke="rgb(115, 161, 191)" stroke-width="1" d="M313.5,150.5C333.5,150.5,333.5,176.5,353.5,176.5"></path><path id="kity_path_215" fill="none" stroke="rgb(115, 161, 191)" stroke-width="1" d="M313.5,150.5C333.5,150.5,333.5,228.5,353.5,228.5"></path><path id="kity_path_219" fill="none" stroke="rgb(115, 161, 191)" stroke-width="1" d="M428.5,433.5C448.5,433.5,448.5,433.5,468.5,433.5"></path><path id="kity_path_220" fill="none" stroke="rgb(115, 161, 191)" stroke-width="1" d="M308.5,459.5C328.5,459.5,328.5,433.5,348.5,433.5"></path><path id="kity_path_221" fill="none" stroke="rgb(115, 161, 191)" stroke-width="1" d="M404.5,485.5C424.5,485.5,424.5,485.5,444.5,485.5"></path><path id="kity_path_222" fill="none" stroke="rgb(115, 161, 191)" stroke-width="1" d="M308.5,459.5C328.5,459.5,328.5,485.5,348.5,485.5"></path><path id="kity_path_224" fill="none" stroke="rgb(115, 161, 191)" stroke-width="1" d="M421.5,124.5C441.5,124.5,441.5,124.5,461.5,124.5"></path><path id="kity_path_231" fill="none" stroke="rgb(115, 161, 191)" stroke-width="1" d="M307.5,321.5C327.5,321.5,327.5,269.5,347.5,269.5"></path><path id="kity_path_232" fill="none" stroke="rgb(115, 161, 191)" stroke-width="1" d="M307.5,321.5C327.5,321.5,327.5,321.5,347.5,321.5"></path><path id="kity_path_233" fill="none" stroke="rgb(115, 161, 191)" stroke-width="1" d="M307.5,321.5C327.5,321.5,327.5,373.5,347.5,373.5"></path></g><g id="minder_node1"><path id="node_outline1" fill="rgb(115, 161, 191)" stroke="rgb(115, 161, 191)" d="M25.5,290.5h84a5,5,0,0,1,5,5v30a5,5,0,0,1,-5,5h-84a5,5,0,0,1,-5,-5v-30a5,5,0,0,1,5,-5z" stroke-width="3"></path><g id="node_text1" fill="white"><text id="kity_text_22" text-rendering="inherit" font-size="16" dy=".8em" y="302.5" x="44.5">babel</text></g></g><g id="kity_g_14" display="none"><path id="kity_path_15" fill="rgba(0, 92, 153, 0.5)" stroke="none" d="M234.5,61.5h68v20h-68z"></path><path id="kity_path_16" fill="none" stroke="rgb(0, 76, 128)" d="M234.5,81.5L302.5,81.5" stroke-width="1"></path></g><g id="minder_node9" opacity="1"><g id="node_expander8" style="cursor: pointer;"><path id="kity_path_92" fill="white" stroke="gray" d="M244.5,150.5A6,6,0,1,1,232.5,150.5A6,6,0,1,1,244.5,150.5"></path><path id="kity_path_93" fill="none" stroke="gray" d="M234,150.5L243,150.5"></path></g><path id="node_outline9" fill="rgb(238, 243, 246)" stroke="rgb(115, 161, 191)" d="M248.5,137.5h62a3,3,0,0,1,3,3v20a3,3,0,0,1,-3,3h-62a3,3,0,0,1,-3,-3v-20a3,3,0,0,1,3,-3z" stroke-width="1"></path><g id="node_text9" fill="black"><text id="kity_text_89" text-rendering="inherit" font-size="14" dy=".8em" y="143.5" x="265.5">作用</text></g></g><g id="minder_node10" opacity="1"><g id="node_expander9" style="cursor: pointer;"><path id="kity_path_103" fill="white" stroke="gray" d="M238.5,321.5A6,6,0,1,1,226.5,321.5A6,6,0,1,1,238.5,321.5"></path><path id="kity_path_104" fill="none" stroke="gray" d="M228,321.5L237,321.5"></path></g><path id="node_outline10" fill="rgb(238, 243, 246)" stroke="rgb(115, 161, 191)" d="M242.5,308.5h62a3,3,0,0,1,3,3v20a3,3,0,0,1,-3,3h-62a3,3,0,0,1,-3,-3v-20a3,3,0,0,1,3,-3z" stroke-width="1"></path><g id="node_text10" fill="black"><text id="kity_text_100" text-rendering="inherit" font-size="14" dy=".8em" y="314.5" x="259.5">支持</text></g></g><g id="minder_node15" opacity="1"><g id="node_expander14" style="cursor: pointer;"><path id="kity_path_143" fill="white" stroke="gray" d="M239.5,459.5A6,6,0,1,1,227.5,459.5A6,6,0,1,1,239.5,459.5"></path><path id="kity_path_144" fill="none" stroke="gray" d="M229,459.5L238,459.5"></path></g><path id="node_outline15" fill="rgb(238, 243, 246)" stroke="rgb(115, 161, 191)" d="M243.5,446.5h62a3,3,0,0,1,3,3v20a3,3,0,0,1,-3,3h-62a3,3,0,0,1,-3,-3v-20a3,3,0,0,1,3,-3z" stroke-width="1"></path><g id="node_text15" fill="black"><text id="kity_text_140" text-rendering="inherit" font-size="14" dy=".8em" y="452.5" x="260.5">特点</text></g></g><g id="minder_node21" opacity="1"><g id="node_expander20" style="cursor: pointer;"><path id="kity_path_197" fill="white" stroke="gray" d="M242.5,33.5A6,6,0,1,1,230.5,33.5A6,6,0,1,1,242.5,33.5"></path><path id="kity_path_198" fill="none" stroke="gray" d="M232,33.5L241,33.5"></path></g><path id="node_outline21" fill="rgb(238, 243, 246)" stroke="rgb(115, 161, 191)" d="M246.5,20.5h117a3,3,0,0,1,3,3v20a3,3,0,0,1,-3,3h-117a3,3,0,0,1,-3,-3v-20a3,3,0,0,1,3,-3z" stroke-width="1"></path><g id="node_text21" fill="black"><text id="kity_text_194" text-rendering="inherit" font-size="14" dy=".8em" y="26.5" x="263.5">什么是babel</text></g></g><g id="kity_g_12" display="none"><path id="kity_path_13" fill="none" stroke="rgb(66, 94, 112)" d="M347.5,10.5h58a5,5,0,0,1,5,5v12a5,5,0,0,1,-5,5h-58a5,5,0,0,1,-5,-5v-12a5,5,0,0,1,5,-5z" stroke-width="5"></path></g><g id="minder_node22"><g id="node_expander21" style="cursor: pointer;" display="none"><path id="kity_path_205" fill="white" stroke="gray" d="M406.5,33.5A6,6,0,1,1,394.5,33.5A6,6,0,1,1,406.5,33.5"></path><path id="kity_path_206" fill="none" stroke="gray"></path></g><path id="node_outline22" fill="none" stroke="none" d="M411.5,22.5h70a5,5,0,0,1,5,5v12a5,5,0,0,1,-5,5h-70a5,5,0,0,1,-5,-5v-12a5,5,0,0,1,5,-5z" stroke-width="3"></path><g id="node_text22" fill="black"><text id="kity_text_202" text-rendering="inherit" font-size="12" dy=".8em" y="27.5" x="416.5">JS的编译器</text></g></g><g id="minder_node2" opacity="1"><g id="node_expander1" style="cursor: pointer;" display="none"><path id="kity_path_36" fill="white" stroke="gray" d="M353.5,72.5A6,6,0,1,1,341.5,72.5A6,6,0,1,1,353.5,72.5"></path><path id="kity_path_37" fill="none" stroke="gray" d="M343,72.5L352,72.5"></path></g><path id="node_outline2" fill="none" stroke="none" d="M358.5,61.5h58a5,5,0,0,1,5,5v12a5,5,0,0,1,-5,5h-58a5,5,0,0,1,-5,-5v-12a5,5,0,0,1,5,-5z" stroke-width="3"></path><g id="node_text2" fill="black"><text id="kity_text_33" text-rendering="inherit" font-size="12" dy=".8em" y="66.5" x="363.5">语法转化</text></g></g><g id="minder_node3" opacity="1"><g id="node_expander2" style="cursor: pointer;"><path id="kity_path_44" fill="white" stroke="gray" d="M353.5,124.5A6,6,0,1,1,341.5,124.5A6,6,0,1,1,353.5,124.5"></path><path id="kity_path_45" fill="none" stroke="gray" d="M343,124.5L352,124.5"></path></g><path id="node_outline3" fill="none" stroke="none" d="M358.5,113.5h58a5,5,0,0,1,5,5v12a5,5,0,0,1,-5,5h-58a5,5,0,0,1,-5,-5v-12a5,5,0,0,1,5,-5z" stroke-width="3"></path><g id="node_text3" fill="black"><text id="kity_text_41" text-rendering="inherit" font-size="12" dy=".8em" y="118.5" x="363.5">功能填充</text></g></g><g id="minder_node4" opacity="1"><g id="node_expander3" style="cursor: pointer;" display="none"><path id="kity_path_52" fill="white" stroke="gray" d="M353.5,176.5A6,6,0,1,1,341.5,176.5A6,6,0,1,1,353.5,176.5"></path><path id="kity_path_53" fill="none" stroke="gray"></path></g><path id="node_outline4" fill="none" stroke="none" d="M358.5,165.5h58a5,5,0,0,1,5,5v12a5,5,0,0,1,-5,5h-58a5,5,0,0,1,-5,-5v-12a5,5,0,0,1,5,-5z" stroke-width="3"></path><g id="node_text4" fill="black"><text id="kity_text_49" text-rendering="inherit" font-size="12" dy=".8em" y="170.5" x="363.5">源码转化</text></g></g><g id="minder_node5" opacity="1"><g id="node_expander4" style="cursor: pointer;" display="none"><path id="kity_path_60" fill="white" stroke="gray" d="M353.5,228.5A6,6,0,1,1,341.5,228.5A6,6,0,1,1,353.5,228.5"></path><path id="kity_path_61" fill="none" stroke="gray"></path></g><path id="node_outline5" fill="none" stroke="none" d="M358.5,217.5h34a5,5,0,0,1,5,5v12a5,5,0,0,1,-5,5h-34a5,5,0,0,1,-5,-5v-12a5,5,0,0,1,5,-5z" stroke-width="3"></path><g id="node_text5" fill="black"><text id="kity_text_57" text-rendering="inherit" font-size="12" dy=".8em" y="222.5" x="363.5">其它</text></g></g><g id="minder_node19"><g id="node_expander18" style="cursor: pointer;" display="none"><path id="kity_path_175" fill="white" stroke="gray" d="M468.5,433.5A6,6,0,1,1,456.5,433.5A6,6,0,1,1,468.5,433.5"></path><path id="kity_path_176" fill="none" stroke="gray"></path></g><path id="node_outline19" fill="none" stroke="none" d="M473.5,422.5h46a5,5,0,0,1,5,5v12a5,5,0,0,1,-5,5h-46a5,5,0,0,1,-5,-5v-12a5,5,0,0,1,5,-5z" stroke-width="3"></path><g id="node_text19" fill="black"><text id="kity_text_172" text-rendering="inherit" font-size="12" dy=".8em" y="427.5" x="478.5">preset</text></g></g><g id="minder_node16"><g id="node_expander15" style="cursor: pointer;"><path id="kity_path_151" fill="white" stroke="gray" d="M348.5,433.5A6,6,0,1,1,336.5,433.5A6,6,0,1,1,348.5,433.5"></path><path id="kity_path_152" fill="none" stroke="gray" d="M338,433.5L347,433.5"></path></g><path id="node_outline16" fill="none" stroke="none" d="M353.5,422.5h70a5,5,0,0,1,5,5v12a5,5,0,0,1,-5,5h-70a5,5,0,0,1,-5,-5v-12a5,5,0,0,1,5,-5z" stroke-width="3"></path><g id="node_text16" fill="black"><text id="kity_text_148" text-rendering="inherit" font-size="12" dy=".8em" y="427.5" x="358.5">插件可拔插</text></g></g><g id="minder_node20"><g id="node_expander19" style="cursor: pointer;" display="none"><path id="kity_path_183" fill="white" stroke="gray" d="M444.5,485.5A6,6,0,1,1,432.5,485.5A6,6,0,1,1,444.5,485.5"></path><path id="kity_path_184" fill="none" stroke="gray"></path></g><path id="node_outline20" fill="none" stroke="none" d="M449.5,474.5h77a5,5,0,0,1,5,5v12a5,5,0,0,1,-5,5h-77a5,5,0,0,1,-5,-5v-12a5,5,0,0,1,5,-5z" stroke-width="3"></path><g id="node_text20" fill="black"><text id="kity_text_180" text-rendering="inherit" font-size="12" dy=".8em" y="479.5" x="454.5">sourcemap</text></g></g><g id="minder_node17"><g id="node_expander16" style="cursor: pointer;"><path id="kity_path_159" fill="white" stroke="gray" d="M348.5,485.5A6,6,0,1,1,336.5,485.5A6,6,0,1,1,348.5,485.5"></path><path id="kity_path_160" fill="none" stroke="gray" d="M338,485.5L347,485.5"></path></g><path id="node_outline17" fill="none" stroke="none" d="M353.5,474.5h46a5,5,0,0,1,5,5v12a5,5,0,0,1,-5,5h-46a5,5,0,0,1,-5,-5v-12a5,5,0,0,1,5,-5z" stroke-width="3"></path><g id="node_text17" fill="black"><text id="kity_text_156" text-rendering="inherit" font-size="12" dy=".8em" y="479.5" x="358.5">可调试</text></g></g><g id="minder_node23"><g id="node_expander22" style="cursor: pointer;" display="none"><path id="kity_path_229" fill="white" stroke="gray" d="M461.5,124.5A6,6,0,1,1,449.5,124.5A6,6,0,1,1,461.5,124.5"></path><path id="kity_path_230" fill="none" stroke="gray"></path></g><path id="node_outline23" fill="none" stroke="none" d="M466.5,113.5h96a5,5,0,0,1,5,5v12a5,5,0,0,1,-5,5h-96a5,5,0,0,1,-5,-5v-12a5,5,0,0,1,5,-5z" stroke-width="3"></path><g id="node_text23" fill="black"><text id="kity_text_226" text-rendering="inherit" font-size="12" dy=".8em" y="118.5" x="471.5">@babel/polyfill</text></g></g><g id="minder_node11"><g id="node_expander10" style="cursor: pointer;" display="none"><path id="kity_path_111" fill="white" stroke="gray" d="M347.5,269.5A6,6,0,1,1,335.5,269.5A6,6,0,1,1,347.5,269.5"></path><path id="kity_path_112" fill="none" stroke="gray"></path></g><path id="node_outline11" fill="none" stroke="none" d="M352.5,258.5h56a5,5,0,0,1,5,5v12a5,5,0,0,1,-5,5h-56a5,5,0,0,1,-5,-5v-12a5,5,0,0,1,5,-5z" stroke-width="3"></path><g id="node_text11" fill="black"><text id="kity_text_108" text-rendering="inherit" font-size="12" dy=".8em" y="263.5" x="357.5">ES2015+</text></g></g><g id="minder_node12"><g id="node_expander11" style="cursor: pointer;" display="none"><path id="kity_path_119" fill="white" stroke="gray" d="M347.5,321.5A6,6,0,1,1,335.5,321.5A6,6,0,1,1,347.5,321.5"></path><path id="kity_path_120" fill="none" stroke="gray"></path></g><path id="node_outline12" fill="none" stroke="none" d="M352.5,310.5h67a5,5,0,0,1,5,5v12a5,5,0,0,1,-5,5h-67a5,5,0,0,1,-5,-5v-12a5,5,0,0,1,5,-5z" stroke-width="3"></path><g id="node_text12" fill="black"><text id="kity_text_116" text-rendering="inherit" font-size="12" dy=".8em" y="315.5" x="357.5">JSX React</text></g></g><g id="minder_node13"><g id="node_expander12" style="cursor: pointer;" display="none"><path id="kity_path_127" fill="white" stroke="gray" d="M347.5,373.5A6,6,0,1,1,335.5,373.5A6,6,0,1,1,347.5,373.5"></path><path id="kity_path_128" fill="none" stroke="gray"></path></g><path id="node_outline13" fill="none" stroke="none" d="M352.5,362.5h49a5,5,0,0,1,5,5v12a5,5,0,0,1,-5,5h-49a5,5,0,0,1,-5,-5v-12a5,5,0,0,1,5,-5z" stroke-width="3"></path><g id="node_text13" fill="black"><text id="kity_text_124" text-rendering="inherit" font-size="12" dy=".8em" y="367.5" x="357.5">Flow Ts</text></g></g></g></g></svg>